# xmcd
#
# Track frame offsets:
#	150
#	31350
#	45652
#	75136
#	106081
#	127981
#	144781
#	170731
#	187531
#
# Disc length: 3132 seconds
#
# Revision: 1
# Processed by: cddbd v1.5.2PL0 Copyright (c) Steve Scherf et al.
# Submitted via: audiograbber 1.83.01
#
DISCID=5c0c3a09
DTITLE=Jamie B Sings - Compose Yourself
DYEAR=2018
DGENRE=Rock
TTITLE0=Welcome
TTITLE1=Change
TTITLE2=The Curios Ego
TTITLE3=L*ve Is Not a Dirty Word
TTITLE4=Claw and Tooth
TTITLE5=Before Your Eyes
TTITLE6=I Know That We Weren't Right
TTITLE7=Little Voices
TTITLE8=A Letter To My Former Self
EXTD=An artist from Bridgwater in England
EXTT0=
EXTT1=
EXTT2=
EXTT3=
EXTT4=
EXTT5=
EXTT6=
EXTT7=
EXTT8=
PLAYORDER=
